<?xml version="1.0" standalone="no"?>
<!DOCTYPE svg PUBLIC "-//W3C//DTD SVG 20010904//EN"
 "http://www.w3.org/TR/2001/REC-SVG-20010904/DTD/svg10.dtd">
<svg version="1.0" xmlns="http://www.w3.org/2000/svg"
 width="16.000000pt" height="16.000000pt" viewBox="0 0 16.000000 16.000000"
 preserveAspectRatio="xMidYMid meet">
<metadata>
Created by potrace 1.11, written by Peter Selinger 2001-2013
</metadata>
<g transform="translate(0.000000,16.000000) scale(0.001351,-0.001351)"
fill="#000000" stroke="none">
<path d="M6352 11641 c-217 -109 -395 -198 -395 -198 -1 -1 -85 -42 -187 -92
-102 -50 -190 -95 -197 -101 -7 -5 -21 -11 -32 -13 -10 -2 -25 -8 -33 -14 -7
-5 -44 -25 -83 -43 -38 -18 -73 -37 -77 -44 -4 -6 -8 -8 -8 -3 0 4 -46 -17
-102 -46 -57 -29 -106 -54 -111 -55 -4 -1 -62 -30 -130 -64 -67 -34 -124 -62
-127 -63 -3 0 -16 -7 -30 -15 -14 -8 -27 -15 -30 -15 -15 -2 -366 -181 -372
-190 -4 -5 -8 -7 -8 -3 0 3 -99 -43 -220 -103 -121 -60 -221 -108 -222 -107
-2 2 -17 -7 -34 -19 -17 -12 -33 -20 -36 -17 -3 2 -11 -2 -18 -11 -7 -8 -17
-15 -22 -15 -14 0 -622 -303 -629 -314 -4 -4 -12 -5 -18 -2 -6 4 -11 2 -11 -4
0 -6 -4 -8 -10 -5 -5 3 -10 1 -10 -5 0 -6 -4 -9 -9 -6 -5 4 -11 3 -13 -2 -3
-9 -214 -112 -228 -112 -6 0 -10 -4 -10 -10 0 -5 -4 -10 -9 -10 -6 0 -246
-117 -535 -260 -289 -143 -529 -261 -533 -261 -5 -1 -20 -10 -35 -20 -14 -10
-29 -19 -32 -19 -9 0 -181 -84 -186 -92 -3 -3 -18 -10 -33 -13 -15 -4 -27 -10
-27 -15 0 -4 -18 -12 -40 -19 -22 -6 -40 -17 -40 -23 0 -6 -2 -9 -6 -6 -3 3
-114 -49 -247 -116 -133 -67 -244 -122 -247 -123 -3 -1 -13 -5 -22 -8 -17 -7
-18 -207 -18 -4020 0 -2920 3 -4016 11 -4021 6 -3 28 -8 48 -11 20 -2 47 -6
61 -10 14 -3 36 -7 50 -8 21 -2 123 -18 380 -60 14 -2 70 -11 125 -20 55 -8
109 -16 120 -19 50 -9 93 -16 130 -21 22 -3 51 -7 65 -10 14 -3 43 -7 65 -10
22 -3 80 -12 128 -21 48 -8 92 -12 97 -9 5 3 11 1 14 -4 3 -4 32 -12 63 -16
32 -4 65 -8 73 -10 24 -4 157 -25 198 -30 20 -3 48 -7 62 -11 14 -3 39 -7 55
-9 17 -1 30 -4 30 -5 0 -1 16 -4 35 -6 34 -4 48 -6 115 -18 17 -2 50 -8 75
-11 25 -3 59 -8 75 -11 43 -8 85 -14 120 -19 17 -2 41 -7 55 -10 31 -7 117
-18 148 -19 12 -1 22 -3 22 -6 0 -3 15 -7 33 -8 18 -1 44 -5 57 -7 14 -3 48
-8 75 -11 28 -4 54 -9 59 -12 5 -2 27 -6 50 -8 38 -2 55 -5 112 -18 12 -2 43
-7 70 -11 53 -6 89 -13 89 -15 0 -1 16 -3 35 -4 19 -2 49 -6 65 -9 27 -6 171
-28 265 -42 19 -3 51 -8 70 -11 19 -4 47 -8 63 -10 15 -2 39 -6 55 -9 22 -4
152 -25 247 -40 96 -16 124 -19 148 -20 15 0 27 -3 27 -6 0 -3 12 -7 28 -7 27
-2 53 -6 102 -16 14 -2 47 -7 74 -11 27 -3 52 -8 55 -9 5 -3 63 -12 141 -21
14 -2 25 -4 25 -5 0 -2 6 -3 90 -14 56 -8 74 -11 125 -20 38 -7 82 -13 145
-22 22 -3 51 -7 65 -10 33 -7 80 -15 105 -18 11 -2 43 -7 70 -11 28 -5 55 -9
60 -10 85 -10 135 -19 135 -24 0 -3 16 -6 36 -5 20 1 49 -2 65 -6 16 -5 53
-12 82 -16 28 -4 61 -8 72 -10 11 -2 43 -6 70 -9 28 -4 51 -11 53 -15 2 -5 9
-7 16 -4 8 3 53 -2 102 -11 141 -25 229 -28 354 -11 63 8 139 18 169 21 30 4
61 8 70 10 9 1 43 6 76 9 33 4 71 9 85 11 14 2 50 6 81 10 31 3 65 7 76 9 11
3 46 7 79 11 32 4 75 9 94 11 19 2 53 6 75 9 22 2 58 7 80 10 22 3 58 8 80 10
22 2 57 6 79 10 21 4 59 9 85 11 95 10 116 13 116 14 0 1 16 3 35 5 56 6 121
14 170 21 25 3 61 8 80 9 19 2 35 4 35 5 0 1 16 3 35 5 19 2 51 6 70 9 36 5
120 14 180 21 19 2 49 6 65 9 17 2 62 8 100 12 39 3 79 8 90 10 17 4 46 7 150
19 11 1 20 3 20 4 0 1 25 4 55 7 50 4 95 11 95 14 0 0 23 3 50 5 28 2 66 6 85
9 19 2 60 7 90 11 30 3 66 8 80 10 29 5 172 22 245 30 28 3 61 8 75 10 14 3
48 7 75 10 28 3 64 8 81 10 18 3 107 14 199 25 92 11 181 23 199 25 17 3 51 7
76 9 25 3 79 10 121 16 42 6 81 10 85 9 5 -1 12 0 17 1 17 6 28 8 52 9 l25 1
0 4858 0 4857 -58 23 c-32 12 -63 22 -70 22 -7 0 -12 4 -12 10 0 5 -3 9 -7 8
-9 -3 -52 13 -120 43 -24 11 -47 19 -53 19 -5 0 -34 11 -65 25 -30 13 -59 25
-63 26 -4 1 -16 5 -27 9 -11 4 -42 17 -70 27 -27 11 -59 24 -70 28 -11 5 -22
9 -25 10 -3 1 -22 9 -44 18 -21 9 -41 17 -45 17 -6 0 -245 93 -298 116 -17 8
-36 14 -41 14 -6 0 -23 6 -39 14 -56 28 -493 198 -510 199 -7 0 -13 4 -13 9 0
4 -8 8 -18 8 -10 0 -37 9 -60 20 -22 11 -48 20 -57 20 -8 0 -15 5 -15 11 0 5
-4 8 -9 4 -5 -3 -12 -1 -16 5 -3 5 -12 10 -19 10 -8 0 -31 8 -52 17 -22 9 -44
18 -50 19 -6 1 -27 9 -45 17 -19 8 -95 38 -169 67 -74 28 -146 56 -160 62 -14
6 -34 14 -45 18 -25 10 -58 23 -65 25 -3 1 -18 7 -35 14 -16 6 -43 17 -60 23
-16 6 -34 15 -39 20 -6 4 -19 8 -31 8 -12 0 -25 4 -30 9 -6 4 -44 21 -85 36
-41 15 -88 33 -105 40 -16 7 -79 32 -140 55 -127 48 -154 59 -177 71 -10 5
-22 9 -28 9 -6 0 -30 9 -54 21 -25 11 -51 22 -58 23 -7 1 -29 9 -48 18 -19 9
-60 25 -90 37 -30 11 -68 26 -85 32 -16 7 -32 13 -35 14 -3 1 -18 7 -33 13
-16 7 -31 12 -34 12 -3 0 -19 6 -36 14 -33 14 -68 28 -77 31 -9 2 -274 105
-295 115 -63 28 -156 60 -172 59 -10 -1 -195 -90 -411 -198z"/>
</g>
</svg>
