<svg version="1" xmlns="http://www.w3.org/2000/svg" width="933.333" height="933.333" viewBox="0 0 700.000000 700.000000"><path d="M67.4 17.6c-14.3 4.9-39.3 28.7-48.2 45.9l-2.6 5V350l-.1 281.5 2.7 5.3c7.4 14.4 29.4 36.3 44.3 44l5 2.6 281 .1 280.9.1 5.6-2.7c14.7-7 36.7-28.8 44.8-44.4l2.6-5v-564l-3.8-6.4c-8.7-14.5-26.3-32-40.8-40.7l-6.3-3.8-280.9-.1c-205 0-281.8.3-284.2 1.1zM404.7 79c3 0 4.9 1.5 11.1 8.7 1 1.2 3.4 5.2 5.3 8.9l3.4 6.7-.1 15.3-.1 15.3-4.1 8.4c-4.1 8.3-6.6 11.6-11.6 15-4.7 3.2-6 7.2-6.2 19.3-.3 15.7 4.8 43.1 11.8 63.9 8.8 26 36.5 79.8 69.7 135 3.6 6 7.1 11.8 7.6 12.8 6.9 12 47.6 78.2 59.9 97.2 4.6 7.1 17.5 27.4 21.6 34 2.8 4.5 10.1 16 17.1 27l7.1 11-.5 6.5c-1.2 17.6-17.1 44.9-31.5 54.5l-4.1 2.7H350.3c-233.8.1-213.2.7-220.4-6.5-8.6-8.5-13.1-14.9-19.2-27.2-7.7-15.4-9.6-26.9-5.6-33.4 1.1-1.9 13.4-21.3 27.2-43 13.9-21.8 25.7-40.4 26.2-41.3 2-3.6 30.5-49.3 31.3-50.3.9-1.1 23.3-38.8 36-60.5 14.7-25.1 32.6-58.1 42.5-78.2 15.1-30.7 20-44.5 25.5-71.3 3.3-15.8 3.7-19.2 3.6-32 0-13.1-1.1-16.8-6-20.2-5-3.4-7.6-6.8-11.7-15.2l-4-8.4-.1-15.7v-15.7l3.3-5.9c3.6-6.4 9.6-14.3 12.1-15.9.8-.6 3.1-1.2 5-1.5 2.6-.4 85.2-.4 108.7 0z"/></svg>