<?xml version="1.0" encoding="UTF-8"?>
<svg width="71.187" height="34.364" version="1.1" viewBox="0 0 18.834865 9.092094" xmlns="http://www.w3.org/2000/svg" xmlns:cc="http://creativecommons.org/ns#" xmlns:dc="http://purl.org/dc/elements/1.1/" xmlns:rdf="http://www.w3.org/1999/02/22-rdf-syntax-ns#">
<metadata>
<rdf:RDF>
<cc:Work rdf:about="">
<dc:format>image/svg+xml</dc:format>
<dc:type rdf:resource="http://purl.org/dc/dcmitype/StillImage"/>
<dc:title/>
</cc:Work>
</rdf:RDF>
</metadata>
<rect x="3.7536e-15" y="5.6399e-15" width="18.835" height="9.0921" fill="#fff" style="paint-order:stroke fill markers"/>
<g transform="translate(-7.2412e-7 3.3057e-6)" fill="#00dddb">
<rect x="5.1465" y="7.7821" width="13.688" height="1.31" stroke-width=".29997"/>
<rect x="7.2412e-7" y="-3.3057e-6" width="5.2788" height="9.0921" stroke-width=".37263"/>
</g>
<g transform="translate(-1.4482e-6 6.6113e-6)">
<g transform="translate(-56.745 -226.46)" stroke-width=".26458" aria-label="PCFORGE">
<path d="m58.354 226.65q0.58208 0 0.762 0.33866 0.16933 0.30692 0.16933 1.016v1.7357q0 0.381-0.03175 0.635-0.02117 0.254-0.0635 0.37042-0.03175 0.0423-0.07408 0.10583-0.04233 0.0635-0.09525 0.11642-0.07408 0.0847-0.21167 0.14816-0.127 0.0529-0.29633 0.0741-0.08467 0-0.22225 0.0106-0.13758 0.0106-0.34925 0.0106v2.0214q0 0.16933 0.01058 0.29633 0.01058 0.11642 0.03175 0.1905 0.02117 0.0741 0.07408 0.15875 0.0635 0.0847 0.14817 0.17992h-1.3547q0.17992-0.20109 0.21167-0.33867 0.05292-0.15875 0.05292-0.48683v-5.7573q0-0.32809-0.05292-0.48684-0.03175-0.15875-0.21167-0.33866zm-0.16933 3.6936q0.254 0 0.254-0.35983v-2.1802q0-0.33867-0.254-0.33867h-0.24342v2.8787z" fill="#fff"/>
<path d="m60.967 228.05q0-0.1905-0.01058-0.30692-0.01058-0.127-0.03175-0.21166-0.04233-0.24342-0.254-0.24342-0.16933 0-0.21167 0.1905-0.0635 0.14817-0.0635 0.46567v4.7731q0 0.33866 0.0635 0.46566 0.04233 0.20109 0.21167 0.20109 0.21167 0 0.254-0.254 0.02117-0.0635 0.03175-0.1905t0.01058-0.32809v-1.4287l0.8255-0.37042v1.9368q0 0.8255-0.27517 1.1007-0.30692 0.30692-0.84667 0.30692-0.23283 0-0.4445-0.0741-0.20108-0.0741-0.35983-0.23284-0.16933-0.14816-0.24342-0.4445-0.02117-0.10583-0.04233-0.26458-0.02117-0.15875-0.02117-0.37042v-4.8577q0-0.21167 0.02117-0.35984 0.02117-0.15875 0.04233-0.27516 0.03175-0.13759 0.08467-0.254 0.0635-0.127 0.15875-0.21167 0.32808-0.27517 0.79375-0.27517 0.51858 0 0.85725 0.30692 0.13758 0.13758 0.20108 0.40217 0.07408 0.254 0.07408 0.66675v1.3123q-0.43392 0-0.8255 0.3175z" fill="#fff"/>
<g fill="#555">
<path d="m62.122 234.06q0.21167-0.21167 0.22225-0.35984 0.0635-0.13758 0.0635-0.53975v-5.588q0-0.21167-0.02117-0.33867-0.01058-0.13758-0.04233-0.22225-0.01058-0.0847-0.07408-0.16933-0.05292-0.0953-0.14817-0.1905h2.5823v1.4182q-0.11642-0.39158-0.29633-0.49741-0.127-0.0952-0.42333-0.0952h-0.70908v2.2437h0.48683q0.15875 0 0.254 0 0.10583-0.0106 0.17992-0.0318 0.08467-0.0529 0.16933-0.15875 0.09525-0.10583 0.16933-0.254v1.7886q-0.22225-0.43392-0.56092-0.43392h-0.6985v2.5294q0 0.40217 0.03175 0.53975 0.0635 0.17992 0.24342 0.35984h-1.4287z"/>
<path d="m67.177 232.74q0 0.41275-0.07408 0.68792-0.0635 0.26458-0.17992 0.41275-0.3175 0.3175-0.8255 0.3175t-0.83608-0.3175q-0.17992-0.17992-0.24342-0.43392-0.02117-0.11641-0.04233-0.27516-0.02117-0.15875-0.02117-0.37042v-4.8578q0-0.1905 0.02117-0.33866 0.02117-0.15875 0.04233-0.254 0.0635-0.26459 0.24342-0.46567 0.32808-0.30692 0.83608-0.30692 0.48683 0 0.8255 0.33867 0.09525 0.0847 0.14817 0.23283 0.0635 0.13759 0.08467 0.32809 0.02117 0.0953 0.02117 0.28575 0 0.1905 0 0.46566zm-0.8255-4.699q0-0.17992-0.01058-0.30692t-0.03175-0.20108q-0.05292-0.22225-0.21167-0.22225-0.1905 0-0.254 0.20108-0.01058 0.0847-0.02117 0.1905-0.01058 0.10583-0.01058 0.28575v4.7202q0 0.17992 0.01058 0.28575 0.01058 0.10584 0.02117 0.17992 0.0635 0.1905 0.254 0.1905 0.16933 0 0.21167-0.21167 0.02117-0.0635 0.03175-0.17991 0.01058-0.127 0.01058-0.30692z"/>
<path d="m70.412 228q0-0.21166 0.01058-0.35983 0.01058-0.15875 0.03175-0.27517 0.07408-0.26458 0.254-0.42333 0.29633-0.29633 0.78317-0.29633 0.508 0 0.83608 0.29633 0.27517 0.29633 0.27517 1.0583v1.0372q-0.20108 0.0212-0.40217 0.0952-0.20108 0.0741-0.41275 0.24342v-1.2277q0-0.1905-0.01058-0.3175t-0.03175-0.20108q-0.05292-0.22225-0.23283-0.22225-0.16933 0-0.23283 0.17991-0.05292 0.127-0.05292 0.46567v4.6778q0 0.48683 0.16933 0.56092 0.02117 0.0212 0.11642 0.0212 0.10583 0 0.27517 0v-2.0849l-0.35983 0.13758v-0.89958l1.1748-0.51858v4.1063h-1.0795q-0.73025 0-0.94192-0.41275-0.11642-0.20109-0.14817-0.49742-0.02117-0.0847-0.02117-0.22225 0-0.14817 0-0.37042v-4.5508z"/>
<path d="m75.441 228.02q-0.08467-0.27517-0.24342-0.41275-0.15875-0.13758-0.41275-0.13758h-0.75142v2.2437h0.39158q0.127 0 0.22225 0 0.09525-0.0106 0.14817-0.0529 0.10583-0.0423 0.17992-0.14817 0.07408-0.10583 0.14817-0.24342v1.7886q-0.0635-0.127-0.127-0.22225-0.0635-0.0952-0.13758-0.13759-0.13758-0.0741-0.33867-0.0741h-0.48683v2.5823h0.9525q0.17992 0 0.27517-0.0952 0.10583-0.10583 0.17992-0.3175v1.2594h-2.5082q0.08467-0.0847 0.127-0.16934 0.05292-0.0847 0.08467-0.16933 0.05292-0.15875 0.05292-0.508v-5.7362q0-0.32809-0.05292-0.48684-0.03175-0.0741-0.08467-0.15875-0.04233-0.0847-0.127-0.17991h2.5082z"/>
</g>
</g>
</g>
<g transform="translate(-7.2412e-7 3.3057e-6)">
<g transform="translate(-56.745 -226.46)" fill="#333" aria-label="PCFORGE">
<path d="m68.575 233.41q0 0.13759 0 0.23284 0 0.0953 0.02117 0.14816 0.04233 0.11642 0.16933 0.26459h-1.2806q0.08467-0.10584 0.14817-0.17992 0.07408-0.0847 0.08467-0.15875 0.01058-0.0847 0.02117-0.20108 0.01058-0.127 0.01058-0.30692v-5.7044q0-0.17992-0.01058-0.30692t-0.02117-0.21167q-0.09525-0.17991-0.23283-0.33866h1.4817q0.14817 0 0.23283 0.0212 0.09525 0.0106 0.16933 0.0212 0.22225 0.0529 0.34925 0.29633 0.05292 0.13759 0.10583 0.37042 0.05292 0.23283 0.05292 0.59267v1.0372q0 0.60325-0.15875 0.85725-0.15875 0.26459-0.381 0.29634 0.381 0.0741 0.48683 0.32808 0.05292 0.23283 0.05292 0.96308v1.9473q0 0.3175 0.01058 0.56092 0.02117 0.24342 0.0635 0.39158 0.05292 0.21167 0.11642 0.41275 0.07408 0.21167 0.1905 0.42334h-0.127q-0.23283 0-0.4445-0.17992-0.07408-0.0529-0.16933-0.1905-0.08467-0.13758-0.21167-0.3175-0.02117-0.0529-0.07408-0.127-0.05292-0.0635-0.10583-0.14817-0.02117-0.0317-0.08467-0.0741-0.0635-0.0423-0.14817-0.0953 0.10583-0.127 0.13758-0.28575 0-0.0423 0.01058-0.13758 0.01058-0.0952 0.01058-0.23284v-2.413q0-0.127-0.05292-0.21167-0.05292-0.0847-0.13758-0.11642 0-0.0106-0.08467-0.0106-0.07408 0-0.20108 0zm0.21167-3.7359q0.26458 0 0.26458-0.34925v-1.5769q0-0.34925-0.26458-0.34925h-0.21167v2.2754z" fill="#555" stroke="#fff" stroke-width=".34396" style="paint-order:stroke fill markers"/>
</g>
</g>
</svg>
