<?xml version="1.0" encoding="UTF-8" standalone="no"?>
<!-- Created with Inkscape (http://www.inkscape.org/) -->

<svg
   xmlns:dc="http://purl.org/dc/elements/1.1/"
   xmlns:cc="http://creativecommons.org/ns#"
   xmlns:rdf="http://www.w3.org/1999/02/22-rdf-syntax-ns#"
   xmlns:svg="http://www.w3.org/2000/svg"
   xmlns="http://www.w3.org/2000/svg"
   xmlns:sodipodi="http://sodipodi.sourceforge.net/DTD/sodipodi-0.dtd"
   xmlns:inkscape="http://www.inkscape.org/namespaces/inkscape"
   width="350"
   height="110"
   viewBox="0 0 92.604162 29.104167"
   version="1.1"
   id="svg8"
   inkscape:version="0.92.2 5c3e80d, 2017-08-06"
   sodipodi:docname="pclab_dark.svg">
  <defs
     id="defs2" />
  <sodipodi:namedview
     id="base"
     pagecolor="#262626"
     bordercolor="#666666"
     borderopacity="1.0"
     inkscape:pageopacity="1"
     inkscape:pageshadow="2"
     inkscape:zoom="1.804417"
     inkscape:cx="-2.8693531"
     inkscape:cy="76.459977"
     inkscape:document-units="mm"
     inkscape:current-layer="g4670"
     showgrid="false"
     units="px"
     inkscape:window-width="1716"
     inkscape:window-height="1389"
     inkscape:window-x="1720"
     inkscape:window-y="24"
     inkscape:window-maximized="0"
     inkscape:snap-page="false"
     fit-margin-top="0"
     fit-margin-left="0"
     fit-margin-right="0"
     fit-margin-bottom="0" />
  <metadata
     id="metadata5">
    <rdf:RDF>
      <cc:Work
         rdf:about="">
        <dc:format>image/svg+xml</dc:format>
        <dc:type
           rdf:resource="http://purl.org/dc/dcmitype/StillImage" />
        <dc:title></dc:title>
      </cc:Work>
    </rdf:RDF>
  </metadata>
  <g
     inkscape:groupmode="layer"
     id="layer3"
     inkscape:label="Lab"
     transform="translate(-24.015986,-51.166144)">
    <g
       id="g4670"
       transform="translate(10.228611,0.24747282)">
      <rect
         ry="1.9310514"
         rx="1.8054392"
         y="52.933777"
         x="87.715454"
         height="2.3025107"
         width="6.614202"
         id="rect4648"
         style="fill:#f9f9f9;fill-opacity:1;stroke:none;stroke-width:0.16467546;stroke-opacity:1" />
      <rect
         y="53.677238"
         x="88.494148"
         height="16.483881"
         width="5.0568194"
         id="rect4658"
         style="fill:#f9f9f9;fill-opacity:1;stroke:none;stroke-width:0.25169849;stroke-opacity:1" />
      <path
         transform="matrix(0.77237696,0,0,0.67251395,24.808809,21.837359)"
         inkscape:transform-center-y="-2.416141"
         d="m 85.72725,57.650457 12.731939,22.052368 -25.46388,-10e-7 z"
         inkscape:randomized="0"
         inkscape:rounded="0"
         inkscape:flatsided="true"
         sodipodi:arg2="-0.52359878"
         sodipodi:arg1="-1.5707963"
         sodipodi:r2="7.3507891"
         sodipodi:r1="14.701578"
         sodipodi:cy="72.352036"
         sodipodi:cx="85.727249"
         sodipodi:sides="3"
         id="path4662"
         style="fill:#f9f9f9;fill-opacity:1;stroke:#f9f9f9;stroke-width:7.64031839;stroke-linejoin:round;stroke-miterlimit:4;stroke-dasharray:none;stroke-opacity:1"
         sodipodi:type="star" />
      <path
         style="fill:#61d43a;fill-opacity:1;stroke:#61d43a;stroke-width:4.20666218;stroke-linejoin:round;stroke-miterlimit:4;stroke-dasharray:none;stroke-opacity:1"
         d="M 88.017469,67.460811 83.51025,74.25833 h 15.024922 l -4.507735,-6.797519 z"
         id="path4662-3"
         inkscape:connector-curvature="0" />
    </g>
  </g>
  <g
     inkscape:groupmode="layer"
     id="layer2"
     inkscape:label="C"
     transform="translate(-24.015986,-51.166144)">
    <g
       id="g4607"
       transform="translate(-10.341056,-2.0151032)">
      <path
         transform="translate(0,-161.53332)"
         sodipodi:nodetypes="sssssssssssss"
         inkscape:connector-curvature="0"
         id="rect4578-0"
         d="m 71.007488,216.74619 c 3.17507,0 6.345392,0.30068 9.520462,0.30068 3.17507,0 6.346977,-0.20038 9.520462,-0.30068 1.661172,-0.0525 3,1.338 3,3 0,3.17507 -0.300678,6.34539 -0.300678,9.52046 0,3.17507 0.200459,6.34697 0.300678,9.52046 0.05246,1.66117 -1.338,3 -3,3 -3.17507,0 -6.345392,-0.30068 -9.520462,-0.30068 -3.17507,0 -6.346977,0.20038 -9.520462,0.30068 -1.661172,0.0525 -3,-1.338 -3,-3 0,-3.17507 0.300678,-6.34539 0.300678,-9.52046 0,-3.17507 -0.200459,-6.34697 -0.300678,-9.52046 -0.05246,-1.66117 1.338,-3 3,-3 z"
         style="fill:#f9f9f9;fill-opacity:1;stroke:none;stroke-width:0.26458332;stroke-opacity:1" />
      <g
         id="flowRoot4520"
         style="font-style:normal;font-variant:normal;font-weight:normal;font-stretch:normal;font-size:40px;line-height:1.25;font-family:'Source Code Pro';-inkscape-font-specification:'Source Code Pro';letter-spacing:0px;word-spacing:0px;fill:#262626;fill-opacity:1;stroke:none"
         transform="matrix(0.26458333,0,0,0.26458333,33.924314,-7.63837)"
         aria-label="C">
        <path
           inkscape:connector-curvature="0"
           id="path4535"
           style="font-size:96px;fill:#262626;fill-opacity:1"
           d="m 180.12373,317.50942 c 8.352,0 14.496,-3.36 19.488,-9.12 l -4.512,-4.896 c -4.032,4.512 -8.448,7.008 -14.208,7.008 -12.096,0 -19.968,-9.984 -19.968,-25.824 0,-15.648 7.872,-25.44 19.968,-25.44 5.28,0 9.408,2.304 12.672,5.76 l 4.512,-5.088 c -3.648,-4.032 -9.696,-7.68 -17.184,-7.68 -16.416,0 -28.224,12.384 -28.224,32.64 0,20.544 11.904,32.64 27.456,32.64 z" />
      </g>
    </g>
  </g>
  <g
     inkscape:label="P"
     inkscape:groupmode="layer"
     id="layer1"
     transform="translate(-24.015986,-212.69947)">
    <flowRoot
       xml:space="preserve"
       id="flowRoot4504"
       style="font-style:normal;font-variant:normal;font-weight:normal;font-stretch:normal;font-size:40px;line-height:1.25;font-family:'Source Code Pro';-inkscape-font-specification:'Source Code Pro';letter-spacing:0px;word-spacing:0px;fill:#000000;fill-opacity:1;stroke:none"><flowRegion
         id="flowRegion4506"><rect
           id="rect4508"
           width="252.85715"
           height="143.57143"
           x="42.142857"
           y="149.5" /></flowRegion><flowPara
         id="flowPara4510" /></flowRoot>    <g
       id="g4612"
       transform="translate(-16.139648,-2.0151032)">
      <path
         sodipodi:nodetypes="sssssssssssss"
         inkscape:connector-curvature="0"
         id="rect4578"
         d="m 45.741808,216.74619 c 3.17507,0 6.345392,0.30068 9.520462,0.30068 3.17507,0 6.346977,-0.20038 9.520462,-0.30068 1.661172,-0.0525 3,1.338 3,3 0,3.17507 -0.300678,6.34539 -0.300678,9.52046 0,3.17507 0.200459,6.34697 0.300678,9.52046 0.05246,1.66117 -1.338,3 -3,3 -3.17507,0 -6.345392,-0.30068 -9.520462,-0.30068 -3.17507,0 -6.346977,0.20038 -9.520462,0.30068 -1.661172,0.0525 -3,-1.338 -3,-3 0,-3.17507 0.300678,-6.34539 0.300678,-9.52046 0,-3.17507 -0.200459,-6.34697 -0.300678,-9.52046 -0.05246,-1.66117 1.338,-3 3,-3 z"
         style="fill:#f9f9f9;fill-opacity:1;stroke:none;stroke-width:0.26458332;stroke-opacity:1" />
      <g
         transform="translate(24.486696,9.6730144)"
         id="text4514"
         style="font-style:normal;font-variant:normal;font-weight:normal;font-stretch:normal;font-size:10.58333302px;line-height:1.25;font-family:'Source Code Pro';-inkscape-font-specification:'Source Code Pro';letter-spacing:0px;word-spacing:0px;fill:#262626;fill-opacity:1;stroke:none;stroke-width:0.26458332"
         aria-label="P">
        <path
           inkscape:connector-curvature="0"
           id="path4532"
           style="font-size:25.39999962px;fill:#262626;fill-opacity:1;stroke-width:0.26458332"
           d="m 25.174874,227.92484 h 2.1082 v -6.604 h 2.921 c 3.6576,0 6.1722,-1.651 6.1722,-5.1562 0,-3.6576 -2.4892,-4.9022 -6.1722,-4.9022 h -5.0292 z m 2.1082,-8.3312 v -6.6294 h 2.667 c 2.8702,0 4.2926,0.7874 4.2926,3.2004 0,2.3622 -1.3716,3.429 -4.2926,3.429 z" />
      </g>
    </g>
  </g>
</svg>
